<svg data-v-fde0c5aa="" xmlns="http://www.w3.org/2000/svg" viewBox="0 0 300 300" class="iconAbove"><!----><defs data-v-fde0c5aa=""><linearGradient data-v-fde0c5aa="" gradientTransform="rotate(25)" id="e42b058c-76c7-4191-bc70-899c350251f7" x1="0%" y1="0%" x2="100%" y2="0%"><stop data-v-fde0c5aa="" offset="0%" stop-color="#51A4FB" stop-opacity="1"></stop><stop data-v-fde0c5aa="" offset="100%" stop-color="#51A4FB" stop-opacity="1"></stop></linearGradient></defs><rect data-v-fde0c5aa="" fill="url(#e42b058c-76c7-4191-bc70-899c350251f7)" x="0" y="0" width="300px" height="300px" class="logo-background-square"></rect><defs data-v-fde0c5aa=""><!----></defs><g data-v-fde0c5aa="" id="16b09ecf-963f-431e-85a9-fb1587576825" fill="#ffffff" transform="matrix(3.607103127014385,0,0,3.607103127014385,15.599334081842402,171.73307479516114)"><path d="M1.22 12.07L1.22 1.93L6.81 1.93L6.81 2.93L2.24 2.93L2.24 6.10L4.95 6.10L4.95 7.10L2.24 7.10L2.24 12.07L1.22 12.07ZM8.19 12.07L8.19 8.65L8.19 7.75Q8.30 7.08 8.50 6.65L8.50 6.65Q8.98 5.48 9.79 4.93Q10.60 4.38 11.13 4.38L11.13 4.38Q11.53 4.38 11.98 4.64L11.98 4.64L11.48 5.45Q10.84 5.22 10.22 5.82Q9.59 6.43 9.35 7.15L9.35 7.15Q9.17 7.79 9.17 9.54L9.17 9.54L9.17 12.07L8.19 12.07ZM18.85 9.42L18.85 9.42L19.66 9.85Q19.27 10.64 18.74 11.12Q18.22 11.59 17.56 11.84Q16.91 12.09 16.08 12.09L16.08 12.09Q14.25 12.09 13.21 10.89Q12.18 9.69 12.18 8.18L12.18 8.18Q12.18 6.75 13.06 5.64L13.06 5.64Q14.16 4.22 16.03 4.22L16.03 4.22Q17.94 4.22 19.09 5.67L19.09 5.67Q19.90 6.70 19.91 8.23L19.91 8.23L13.17 8.23Q13.20 9.54 14.01 10.38Q14.81 11.22 16.00 11.22L16.00 11.22Q16.57 11.22 17.11 11.02Q17.65 10.81 18.03 10.49Q18.41 10.16 18.85 9.42ZM13.28 7.40L18.85 7.40Q18.66 6.63 18.29 6.17Q17.92 5.71 17.32 5.42Q16.71 5.14 16.04 5.14L16.04 5.14Q14.94 5.14 14.14 5.85L14.14 5.85Q13.57 6.37 13.28 7.40L13.28 7.40ZM28.01 9.42L28.01 9.42L28.82 9.85Q28.43 10.64 27.90 11.12Q27.38 11.59 26.72 11.84Q26.07 12.09 25.24 12.09L25.24 12.09Q23.41 12.09 22.37 10.89Q21.34 9.69 21.34 8.18L21.34 8.18Q21.34 6.75 22.22 5.64L22.22 5.64Q23.32 4.22 25.19 4.22L25.19 4.22Q27.10 4.22 28.25 5.67L28.25 5.67Q29.06 6.70 29.07 8.23L29.07 8.23L22.33 8.23Q22.36 9.54 23.17 10.38Q23.97 11.22 25.16 11.22L25.16 11.22Q25.73 11.22 26.27 11.02Q26.81 10.81 27.19 10.49Q27.57 10.16 28.01 9.42ZM22.44 7.40L28.01 7.40Q27.82 6.63 27.45 6.17Q27.08 5.71 26.48 5.42Q25.87 5.14 25.20 5.14L25.20 5.14Q24.10 5.14 23.30 5.85L23.30 5.85Q22.73 6.37 22.44 7.40L22.44 7.40ZM30.71 12.09L30.71 1.69L31.68 1.69L31.68 12.09L30.71 12.09ZM37.22 4.22L37.22 4.22Q38.95 4.22 40.09 5.47L40.09 5.47Q41.15 6.61 41.15 8.18L41.15 8.18Q41.16 12.07 41.15 12.13L41.15 12.13Q40.49 12.13 40.13 12.13L40.13 12.13Q40.13 12.08 40.13 10.42L40.13 10.42Q39.33 11.92 37.22 12.09L37.22 12.09Q35.50 12.09 34.41 10.92Q33.32 9.75 33.32 8.18L33.32 8.18Q33.32 6.62 34.35 5.48L34.35 5.48Q35.49 4.22 37.22 4.22ZM37.22 5.16L37.22 5.16Q36.03 5.16 35.16 6.05Q34.30 6.94 34.30 8.20L34.30 8.20Q34.30 9.01 34.74 9.76Q35.18 10.51 36.24 11.03L36.24 11.03Q38.88 11.62 39.99 8.63L39.99 8.63Q40.05 7.68 39.79 6.80L39.79 6.80Q39.59 6.41 39.26 6.05L39.26 6.05Q38.42 5.16 37.22 5.16ZM43.01 12.09L43.01 9.24L43.00 8.44Q42.98 7.85 43.05 7.44L43.05 7.44Q43.20 6.15 43.70 5.55L43.70 5.55Q44.19 5.02 44.71 4.74L44.71 4.74Q45.55 4.38 46.64 4.40L46.64 4.40Q47.49 4.40 48.21 4.82Q48.93 5.25 49.24 5.97Q49.55 6.69 49.55 8.23L49.55 8.23L49.55 12.09L48.59 12.09L48.59 8.51Q48.59 7.21 48.48 6.77L48.48 6.77Q48.31 6.03 47.80 5.72Q47.30 5.41 46.31 5.41L46.31 5.41Q45.43 5.41 44.75 5.91Q44.06 6.42 44.11 7.29L44.11 7.29Q43.98 7.85 43.98 9.34L43.98 9.34L43.98 12.09L43.01 12.09ZM58.88 5.97L58.88 5.97L58.11 6.45Q57.12 5.12 55.41 5.12L55.41 5.12Q54.03 5.12 53.13 6.00Q52.22 6.88 52.22 8.15L52.22 8.15Q52.22 8.97 52.64 9.70Q53.05 10.42 53.78 10.82Q54.50 11.22 55.41 11.22L55.41 11.22Q57.07 11.22 58.11 9.91L58.11 9.91L58.88 10.40Q58.34 11.21 57.43 11.65Q56.53 12.09 55.36 12.09L55.36 12.09Q53.59 12.09 52.42 10.96Q51.25 9.84 51.25 8.22L51.25 8.22Q51.25 7.13 51.80 6.20Q52.35 5.26 53.30 4.74Q54.26 4.22 55.45 4.22L55.45 4.22Q56.18 4.22 56.88 4.44Q57.57 4.67 58.06 5.03Q58.54 5.40 58.88 5.97ZM67.03 9.42L67.03 9.42L67.84 9.85Q67.45 10.64 66.92 11.12Q66.40 11.59 65.74 11.84Q65.08 12.09 64.26 12.09L64.26 12.09Q62.43 12.09 61.39 10.89Q60.36 9.69 60.36 8.18L60.36 8.18Q60.36 6.75 61.24 5.64L61.24 5.64Q62.34 4.22 64.21 4.22L64.21 4.22Q66.12 4.22 67.27 5.67L67.27 5.67Q68.08 6.70 68.09 8.23L68.09 8.23L61.35 8.23Q61.38 9.54 62.19 10.38Q62.99 11.22 64.18 11.22L64.18 11.22Q64.75 11.22 65.29 11.02Q65.83 10.81 66.21 10.49Q66.59 10.16 67.03 9.42ZM61.46 7.40L67.03 7.40Q66.84 6.63 66.47 6.17Q66.10 5.71 65.50 5.42Q64.89 5.14 64.22 5.14L64.22 5.14Q63.12 5.14 62.32 5.85L62.32 5.85Q61.75 6.37 61.46 7.40L61.46 7.40ZM69.51 12.07L69.51 8.65L69.51 7.75Q69.62 7.08 69.83 6.65L69.83 6.65Q70.31 5.48 71.11 4.93Q71.92 4.38 72.45 4.38L72.45 4.38Q72.85 4.38 73.30 4.64L73.30 4.64L72.80 5.45Q72.17 5.22 71.54 5.82Q70.92 6.43 70.68 7.15L70.68 7.15Q70.50 7.79 70.50 9.54L70.50 9.54L70.50 12.07L69.51 12.07Z"></path></g><defs data-v-fde0c5aa=""><!----></defs><g data-v-fde0c5aa="" id="fd961f35-7856-4627-8330-30b71c8318b8" stroke="none" fill="#ffffff" transform="matrix(1.3461600786995753,0,0,1.3461600786995753,82.6926662077301,54.86223893330708)"><path d="M38.285 71.356l-20.036-.004a4.054 4.054 0 01-.179.004c-2.556 0-5.133-1.786-5.133-5.772V27.799c0-3.988 2.577-5.773 5.133-5.773.072 0 .133.002.179.004l20.038-.004 43.463.004c.045-.002.105-.004.179-.004 2.554 0 5.132 1.785 5.132 5.773l-.001 37.785c0 3.986-2.578 5.772-5.133 5.772-.073 0-.134-.002-.179-.004l-43.463.004zm43.589-3.678l.074.006c.973-.002 1.437-.669 1.437-2.1l.001-37.785c0-1.432-.463-2.099-1.457-2.099l-.112.015-.014-.01L27.94 25.7l-9.818.005-.073-.007c-.974.002-1.437.669-1.437 2.101v37.785c0 1.431.463 2.098 1.458 2.098l.111-.015.016.011 20.088.004 43.589-.004zM96.662 74.3H3.337v3.675h93.325V74.3zM57.538 52.297l-6.015-6.256 2.579-2.684-10.312-3.574 3.437 10.725 2.578-2.682 6.016 6.259 1.717-1.788z"></path></g><!----></svg>